<svg xmlns="http://www.w3.org/2000/svg" width="17" height="17" viewBox="0 0 17 17" fill="none">
<path fill-rule="evenodd" clip-rule="evenodd" d="M12.75 14.1667H4.24998C3.85969 14.1667 3.54165 13.8486 3.54165 13.4583V9.20833H13.4583V13.4583C13.4583 13.8486 13.1403 14.1667 12.75 14.1667ZM4.24998 4.2501H4.95831V4.95843C4.95831 5.34802 5.27706 5.66677 5.66665 5.66677C6.05623 5.66677 6.37498 5.34802 6.37498 4.95843V4.2501H10.625V4.95843C10.625 5.34802 10.9437 5.66677 11.3333 5.66677C11.7229 5.66677 12.0416 5.34802 12.0416 4.95843V4.2501H12.75C13.1403 4.2501 13.4583 4.56814 13.4583 4.95843V7.79177H3.54165V4.95843C3.54165 4.56814 3.85969 4.2501 4.24998 4.2501ZM12.7499 2.83329H12.0416V2.12496C12.0416 1.73538 11.7229 1.41663 11.3333 1.41663C10.9437 1.41663 10.6249 1.73538 10.6249 2.12496V2.83329H6.37494V2.12496C6.37494 1.73538 6.05619 1.41663 5.66661 1.41663C5.27702 1.41663 4.95827 1.73538 4.95827 2.12496V2.83329H4.24994C3.07836 2.83329 2.12494 3.78671 2.12494 4.95829V13.4583C2.12494 14.6299 3.07836 15.5833 4.24994 15.5833H12.7499C13.9215 15.5833 14.8749 14.6299 14.8749 13.4583V4.95829C14.8749 3.78671 13.9215 2.83329 12.7499 2.83329Z" fill="#A3A5A9"/>
</svg>