<svg width="137" height="171" viewBox="0 0 137 171" fill="none" xmlns="http://www.w3.org/2000/svg">
<path fill-rule="evenodd" clip-rule="evenodd" d="M131.508 35.7278L64.5439 76.9121C63.4996 77.5543 62.1937 77.5969 61.1098 77.0239L13.4992 51.8539C11.2044 50.6407 8.43967 52.2892 8.41586 54.8849L8.14093 84.8525C8.12907 86.145 8.83765 87.3365 9.97888 87.9433L61.1021 115.123C62.1899 115.701 63.503 115.658 64.5508 115.01L124.781 77.7543C127.089 76.3267 130.068 77.9868 130.068 80.7006V127.282C130.068 128.487 129.442 129.605 128.415 130.235L64.5622 169.402C63.508 170.049 62.189 170.085 61.1014 169.496L10.283 141.983C9.16476 141.377 8.46807 140.208 8.46807 138.936V138.468C8.46807 135.851 11.259 134.179 13.5668 135.414L61.1025 160.847C62.1899 161.429 63.5046 161.388 64.5545 160.741L120.799 126.079C121.823 125.448 122.446 124.332 122.446 123.13V90.0029C122.446 87.2851 122.91 87.1522 120.602 88.5878L64.581 123.993C63.5173 124.654 62.1792 124.69 61.0815 124.087L2.29483 91.7538C1.1878 91.145 0.5 89.9817 0.5 88.7183V48.355C0.5 47.1539 1.12217 46.0384 2.14416 45.4074L73.9819 1.04672C75.0314 0.398662 76.3463 0.357459 77.4342 0.938537L131.325 29.721C133.684 30.9812 133.786 34.3265 131.508 35.7278ZM120.714 33.6045L75.677 9.00738L18.8612 44.8884L62.8588 68.5947L120.714 33.6045Z" fill="#FCFDFE"/>
<path d="M60.3234 138.266L13.3354 113.285C10.9721 112.029 8.12164 113.742 8.12164 116.418C8.12164 117.712 8.82607 118.904 9.95988 119.527L60.2938 147.211C61.878 148.082 63.8092 148.03 65.3445 147.075L109.933 119.337C111.036 118.651 111.707 117.444 111.707 116.145C111.707 113.2 108.474 111.399 105.969 112.948L65.3008 138.104C63.7886 139.039 61.8934 139.101 60.3234 138.266Z" fill="#FCFDFE"/>
<path d="M65.3032 90.3275L115.013 60.2633C117.517 58.7492 120.714 60.5519 120.714 63.4777C120.714 64.7825 120.037 65.9939 118.925 66.6775L65.2908 99.6639C63.7837 100.591 61.8989 100.652 60.3346 99.8253L21.1534 79.1116C19.7434 78.3662 18.8612 76.902 18.8612 75.307C18.8612 72.0501 22.3389 69.9735 25.2061 71.5183L60.344 90.4509C61.9023 91.2905 63.7885 91.2436 65.3032 90.3275Z" fill="#FCFDFE"/>
</svg>
