<svg xmlns="http://www.w3.org/2000/svg" width="32" height="40" viewBox="0 0 32 40" fill="none">
<path fill-rule="evenodd" clip-rule="evenodd" d="M30.7914 8.38448L15.0525 18.0495C14.8071 18.2002 14.5002 18.2102 14.2454 18.0757L3.05527 12.1689C2.5159 11.8842 1.8661 12.271 1.8605 12.8802L1.79588 19.9129C1.7931 20.2162 1.95964 20.4958 2.22787 20.6382L14.2436 27.0166C14.4993 27.1523 14.8079 27.1423 15.0542 26.9902L29.2103 18.2471C29.7528 17.9121 30.4529 18.3017 30.4529 18.9385V29.8701C30.4529 30.1529 30.3058 30.4153 30.0644 30.5632L15.0569 39.7548C14.8091 39.9065 14.4991 39.9149 14.2434 39.7767L2.29936 33.32C2.03652 33.178 1.87277 32.9035 1.87277 32.6051V32.4953C1.87277 31.881 2.52874 31.4886 3.07115 31.7784L14.2437 37.747C14.4993 37.8835 14.8083 37.8741 15.055 37.7222L28.2745 29.5878C28.5151 29.4397 28.6616 29.1778 28.6616 28.8956V21.1216C28.6616 20.4838 28.7705 20.4526 28.2281 20.7895L15.0613 29.0982C14.8113 29.2535 14.4968 29.2619 14.2388 29.1202L0.421848 21.5325C0.161657 21.3896 0 21.1166 0 20.8201V11.3478C0 11.0659 0.146232 10.8041 0.386435 10.656L17.2708 0.24564C17.5175 0.0935566 17.8265 0.0838872 18.0822 0.220253L30.7484 6.97483C31.303 7.27057 31.3269 8.05562 30.7914 8.38448ZM28.2545 7.88618L17.6692 2.11382L4.31552 10.5343L14.6565 16.0976L28.2545 7.88618Z" fill="#0B1E71"/>
<path d="M13.5818 32.194L3.01512 26.5848C2.46034 26.2903 1.79163 26.6924 1.79163 27.3205C1.79163 27.6245 1.9572 27.9043 2.22363 28.0506L13.5692 34.2812C14.2411 34.6501 15.0596 34.6282 15.7108 34.2237L25.7208 28.0061C25.98 27.845 26.1377 27.5615 26.1377 27.2563C26.1377 26.5652 25.3793 26.1422 24.7913 26.5054L15.6922 32.1251C15.0509 32.5212 14.2476 32.5474 13.5818 32.194Z" fill="#5BB1F9"/>
<path d="M15.6932 20.9195L26.9169 14.1419C27.5047 13.7869 28.2547 14.2102 28.2547 14.8968C28.2547 15.2034 28.0955 15.4879 27.8343 15.6483L15.688 23.1072C15.0488 23.4997 14.2499 23.5257 13.5866 23.1756L4.85447 18.5663C4.52314 18.3914 4.3158 18.0475 4.3158 17.6728C4.3158 16.9085 5.13167 16.421 5.80475 16.7831L13.5905 20.9717C14.2514 21.3273 15.0508 21.3074 15.6932 20.9195Z" fill="#5BB1F9"/>
</svg>