<svg xmlns="http://www.w3.org/2000/svg" version="1.0" width="32.000000pt" height="32.000000pt" viewBox="0 0 32.000000 32.000000" preserveAspectRatio="xMidYMid meet">
<g transform="translate(0.000000,32.000000) scale(0.100000,-0.100000)" fill="#000000" stroke="none">
<path d="M126 254 c-20 -20 -20 -48 0 -68 20 -20 48 -20 68 0 21 21 20 47 -2 67 -23 21 -46 22 -66 1z m59 -34 c0 -18 -6 -26 -23 -28 -24 -4 -38 18 -28 44 3 9 15 14 28 12 17 -2 23 -10 23 -28z"/>
<path d="M85 135 c-16 -15 -25 -36 -25 -55 l0 -30 100 0 100 0 0 30 c0 50 -38 80 -100 80 -41 0 -56 -5 -75 -25z m42 -30 c-2 -29 -6 -35 -24 -35 -29 0 -30 23 -3 50 27 27 29 26 27 -15z m103 4 c15 -28 12 -39 -12 -39 -19 0 -23 6 -25 34 -1 27 2 33 13 29 8 -3 19 -14 24 -24z m-57 1 c5 -21 -7 -35 -22 -26 -10 7 -3 46 9 46 4 0 10 -9 13 -20z"/>
</g>
</svg>